<svg width="17" height="26" viewBox="0 0 17 26" fill="none" xmlns="http://www.w3.org/2000/svg">
<g clip-path="url(#clip0_1_98)">
<path d="M8.25 1.74854C6.06196 1.74854 3.96354 2.61773 2.41637 4.1649C0.869194 5.71208 0 7.8105 0 9.99854C0 14.356 7.35 23.5735 7.665 23.971C7.73528 24.0586 7.82433 24.1293 7.92558 24.1779C8.02683 24.2265 8.1377 24.2517 8.25 24.2517C8.3623 24.2517 8.47317 24.2265 8.57442 24.1779C8.67567 24.1293 8.76472 24.0586 8.835 23.971C9.15 23.5735 16.5 14.356 16.5 9.99854C16.5 7.8105 15.6308 5.71208 14.0836 4.1649C12.5365 2.61773 10.438 1.74854 8.25 1.74854ZM8.25 12.2485C7.65666 12.2485 7.07664 12.0726 6.58329 11.7429C6.08994 11.4133 5.70542 10.9448 5.47836 10.3966C5.2513 9.84841 5.19189 9.24521 5.30764 8.66326C5.4234 8.08132 5.70912 7.54677 6.12868 7.12721C6.54824 6.70766 7.08279 6.42194 7.66473 6.30618C8.24667 6.19042 8.84987 6.24983 9.39805 6.4769C9.94623 6.70396 10.4148 7.08848 10.7444 7.58182C11.0741 8.07517 11.25 8.65519 11.25 9.24854C11.25 10.0442 10.9339 10.8072 10.3713 11.3699C9.80871 11.9325 9.04565 12.2485 8.25 12.2485Z" fill="#D2D2D2"/>
</g>
<defs>
<clipPath id="clip0_1_98">
<rect width="16.5" height="25" fill="white" transform="translate(0 0.5)"/>
</clipPath>
</defs>
</svg>
