<svg width="21" height="18" viewBox="0 0 21 18" fill="none" xmlns="http://www.w3.org/2000/svg">
<path d="M12.2527 12.0937C11.7303 12.4033 11.1236 12.5669 10.498 12.5669C9.87248 12.5669 9.26573 12.4033 8.74337 12.0937L0.139796 6.9944C0.0923006 6.96617 0.0456846 6.93679 0 6.90629L0 15.262C0 16.22 0.874492 16.9803 1.93282 16.9803H19.0632C20.1408 16.9803 20.996 16.2029 20.996 15.262V6.90625C20.9502 6.93683 20.9035 6.96628 20.8559 6.99455L12.2527 12.0937Z" fill="#D2D2D2"/>
<path d="M0.822208 6.08393L9.42578 11.1832C9.75146 11.3763 10.1247 11.4728 10.498 11.4728C10.8713 11.4728 11.2446 11.3762 11.5702 11.1832L20.1738 6.08393C20.6887 5.77897 20.996 5.26858 20.996 4.71772C20.996 3.77054 20.1292 3 19.0639 3H1.93217C0.866784 3.00004 1.01704e-06 3.77058 1.01704e-06 4.71863C-0.000318377 4.98885 0.0745945 5.25494 0.218058 5.49316C0.361522 5.73138 0.569076 5.93434 0.822208 6.08393Z" fill="#D2D2D2"/>
</svg>
