<svg width="57" height="56" viewBox="0 0 57 56" fill="none" xmlns="http://www.w3.org/2000/svg">
<path d="M39.4686 55.9976H17.5318C14.7519 55.9976 12.4871 53.7329 12.4871 50.953V42.427C12.4871 42.067 12.7788 41.7707 13.1434 41.7707L43.8524 41.771C44.2124 41.771 44.5087 42.067 44.5087 42.4273V50.9533C44.5129 53.7329 42.2482 55.9976 39.4686 55.9976ZM13.7993 43.0835V50.9533C13.7993 53.0084 15.4718 54.6854 17.5314 54.6854H39.4683C41.5234 54.6854 43.2004 53.013 43.2004 50.9533V43.0835H13.799H13.7993ZM43.8567 11.9142H13.1431C12.7785 11.9142 12.4868 11.6225 12.4868 11.2579V5.04681C12.4868 2.26725 14.7469 0.00219727 17.5314 0.00219727H39.4683C42.2482 0.00219727 44.5129 2.26233 44.5129 5.04681V11.2579C44.5129 11.6225 44.217 11.9142 43.8567 11.9142ZM13.7993 10.6017H43.1962V5.04681C43.1962 2.99176 41.5237 1.3147 39.464 1.3147H17.5318C15.4767 1.3147 13.7996 2.98716 13.7996 5.04681V10.6017H13.7993Z" fill="#3664F5"/>
<path d="M32.7243 6.29981H24.276C23.7156 6.29981 22.9635 6.03107 22.5445 4.74121L21.2914 0.863085C21.1533 0.432256 21.4791 0.00634766 21.9155 0.00634766H35.0806C35.5262 0.00634766 35.8392 0.443412 35.705 0.863085L34.4519 4.74121C34.0371 6.02615 33.2851 6.29981 32.7246 6.29981H32.7243ZM22.8178 1.31459C23.0649 2.07978 23.8147 4.9873 24.276 4.9873H32.7243C33.1843 4.9873 33.938 2.0719 34.1825 1.31459H22.8178ZM43.8566 48.7019H13.143C12.2791 48.7019 12.2791 47.3894 13.143 47.3894H43.8521C44.7134 47.3894 44.7157 48.7019 43.8563 48.7019H43.8566ZM30.2817 53.6235H26.7183C24.1819 53.6235 24.1819 49.7683 26.7183 49.7683H30.2817C32.8139 49.7683 32.8257 53.6235 30.2817 53.6235ZM26.7183 51.0763C25.9065 51.0763 25.9118 52.3064 26.7183 52.3064L30.2817 52.3067C31.0935 52.3067 31.0883 51.0763 30.2817 51.0763H26.7183ZM46.8186 43.0834H10.1811C7.70665 43.0834 5.6972 41.0691 5.6972 38.5996V15.0857C5.6972 12.6113 7.70665 10.6019 10.1811 10.6019H46.8186C49.293 10.6019 51.3025 12.6113 51.3025 15.0857V38.5996C51.3025 41.074 49.293 43.0834 46.8186 43.0834ZM10.1811 11.9141C8.43115 11.9141 7.00938 13.3358 7.00938 15.0857V38.5996C7.00938 40.3495 8.43115 41.7712 10.1811 41.7712H46.8186C48.5685 41.7712 49.9903 40.3495 49.9903 38.5996V15.0857C49.9903 13.3358 48.5685 11.9141 46.8186 11.9141H10.1811Z" fill="#3664F5"/>
<path d="M50.6466 19.6836H6.35311C5.48817 19.6836 5.48784 18.3711 6.35311 18.3711L50.6466 18.3715C51.5105 18.3715 51.5105 19.6836 50.6466 19.6836ZM22.1977 38.0207C22.029 38.0207 21.8607 37.957 21.7327 37.8294L15.0934 31.1897C14.8385 30.9348 14.8385 30.5151 15.0934 30.2601L21.7327 23.6254C22.3411 23.0171 23.2736 23.9385 22.6623 24.555L16.4876 30.7297L22.6623 36.9044C23.0698 37.3119 22.789 38.021 22.1973 38.021L22.1977 38.0207ZM34.8023 38.0207C34.2166 38.0207 33.9279 37.3129 34.3374 36.8995L40.512 30.7248L34.342 24.5547C33.7336 23.9463 34.6547 23.0135 35.2715 23.6251L41.9063 30.2598C42.1615 30.5151 42.1615 30.9295 41.9063 31.1894L35.2715 37.829C35.1393 37.9567 34.9706 38.0203 34.802 38.0203L34.8023 38.0207ZM23.9203 39.3151C23.4104 39.3151 23.1033 38.7639 23.3507 38.3307L32.5054 22.4724C32.9379 21.7249 34.0742 22.3763 33.6447 23.1286L24.49 38.987C24.3669 39.1967 24.1481 39.3151 23.9203 39.3151ZM36.5657 15.8013C35.8385 15.8013 34.8158 15.9788 34.8158 15.145C34.8158 14.3112 35.8385 14.4891 36.5657 14.4891C37.4273 14.4891 37.4329 15.8013 36.5657 15.8013ZM41.2139 15.8013C40.4865 15.8013 39.464 15.9788 39.464 15.145C39.464 14.3112 40.4868 14.4891 41.2139 14.4891C42.0756 14.4891 42.0811 15.8013 41.2139 15.8013ZM45.8618 15.8013C45.1347 15.8013 44.1119 15.9788 44.1119 15.145C44.1119 14.3112 45.1347 14.4891 45.8618 14.4891C46.7235 14.4891 46.7291 15.8013 45.8618 15.8013ZM27.2013 16.8401H11.1382C10.2112 16.8401 10.4819 15.441 10.4819 14.1016C10.4819 13.737 10.7736 13.4453 11.1382 13.4453H27.2013C28.1286 13.4453 27.8575 14.8464 27.8575 16.1888C27.8575 16.5487 27.5658 16.8401 27.2013 16.8401ZM11.7944 15.5276H26.545V14.7529H11.7944V15.5276Z" fill="#3664F5"/>
</svg>
