<svg width="57" height="56" viewBox="0 0 57 56" fill="none" xmlns="http://www.w3.org/2000/svg">
<g clip-path="url(#clip0_153_333)">
<path d="M22.5949 35.9421C22.3754 35.9421 22.1631 35.8638 21.9963 35.7212L16.0137 30.6271C15.9117 30.5403 15.8299 30.4324 15.7737 30.3108C15.7176 30.1893 15.6885 30.057 15.6885 29.9231C15.6885 29.7892 15.7176 29.6569 15.7737 29.5354C15.8299 29.4138 15.9117 29.3059 16.0137 29.2192L21.9963 24.125C22.1829 23.966 22.4251 23.8877 22.6694 23.9072C22.9138 23.9267 23.1405 24.0425 23.2995 24.2291C23.6302 24.6182 23.5837 25.2015 23.1948 25.5323L18.0392 29.9228L23.1948 34.3133C23.3389 34.4359 23.442 34.5999 23.49 34.783C23.538 34.9661 23.5287 35.1595 23.4633 35.3371C23.3978 35.5147 23.2795 35.668 23.1241 35.7762C22.9688 35.8844 22.7842 35.9423 22.5949 35.9421ZM34.4051 35.9421C34.1435 35.9421 33.8836 35.8316 33.701 35.6165C33.542 35.4298 33.4637 35.1877 33.4832 34.9433C33.5028 34.6989 33.6186 34.4723 33.8052 34.3133L38.9607 29.9228L33.8052 25.5323C33.6252 25.3714 33.5153 25.1466 33.4989 24.9058C33.4824 24.665 33.5609 24.4273 33.7173 24.2435C33.8738 24.0597 34.096 23.9445 34.3363 23.9223C34.5767 23.9001 34.8162 23.9728 35.0036 24.1249L40.9862 29.219C41.0882 29.3058 41.1701 29.4137 41.2262 29.5353C41.2824 29.6568 41.3114 29.7891 41.3114 29.923C41.3114 30.0569 41.2824 30.1892 41.2262 30.3107C41.1701 30.4323 41.0882 30.5402 40.9862 30.6269L35.0036 35.7211C34.8368 35.8637 34.6246 35.9421 34.4052 35.9421H34.4051ZM26.3821 39.763C26.2444 39.7632 26.1084 39.7326 25.984 39.6734C25.8597 39.6143 25.7501 39.5282 25.6632 39.4213C25.5764 39.3144 25.5145 39.1895 25.4822 39.0556C25.4498 38.9218 25.4477 38.7824 25.4761 38.6476L29.2046 20.9448C29.2552 20.7048 29.399 20.4948 29.6044 20.3609C29.8098 20.2269 30.06 20.1801 30.3 20.2307C30.5399 20.2813 30.7499 20.4251 30.8838 20.6305C31.0178 20.8359 31.0646 21.0861 31.014 21.3261L27.2855 39.0288C27.2419 39.2362 27.1283 39.4223 26.9639 39.5559C26.7994 39.6896 26.594 39.7627 26.3821 39.763Z" fill="#3664F5"/>
<path d="M50.2925 49.4076H6.70755C3.28494 49.4076 0.5 46.6232 0.5 43.2V6.20755C0.5 2.78494 3.28494 0 6.70755 0H50.2925C53.7151 0 56.5 2.78494 56.5 6.20755V43.2C56.5 46.6232 53.7151 49.4076 50.2925 49.4076ZM6.70755 1.84906C4.30443 1.84906 2.34906 3.80443 2.34906 6.20755V43.2C2.34906 45.6032 4.30443 47.5585 6.70755 47.5585H50.2925C52.6956 47.5585 54.6509 45.6032 54.6509 43.2V6.20755C54.6509 3.80443 52.6956 1.84906 50.2925 1.84906H6.70755Z" fill="#3664F5"/>
<path d="M55.5755 14.8044H1.42454C1.18204 14.8003 0.950866 14.7011 0.780828 14.5281C0.610789 14.3552 0.515503 14.1224 0.515503 13.8798C0.515503 13.6373 0.610789 13.4045 0.780828 13.2316C0.950866 13.0586 1.18204 12.9594 1.42454 12.9553H55.5755C55.818 12.9594 56.0491 13.0586 56.2192 13.2316C56.3892 13.4045 56.4845 13.6373 56.4845 13.8798C56.4845 14.1224 56.3892 14.3552 56.2192 14.5281C56.0491 14.7011 55.818 14.8003 55.5755 14.8044ZM16.2965 10.3804C14.6837 10.3804 13.3706 9.06727 13.3706 7.4545C13.3706 5.84133 14.6837 4.52876 16.2965 4.52876C17.9097 4.52876 19.2222 5.84133 19.2222 7.4545C19.2222 9.06727 17.9097 10.3804 16.2965 10.3804ZM16.2965 6.37782C15.7031 6.37782 15.2197 6.86069 15.2197 7.4545C15.2197 8.04831 15.7031 8.53131 16.2965 8.53131C16.8903 8.53131 17.3732 8.04844 17.3732 7.4545C17.3732 6.86055 16.8903 6.37782 16.2965 6.37782ZM7.30718 10.352C5.69374 10.352 4.38131 9.0394 4.38131 7.42623C4.38131 5.81293 5.69374 4.50037 7.30705 4.50037C8.92035 4.50037 10.2328 5.81293 10.2328 7.42623C10.2328 9.0394 8.92048 10.352 7.30718 10.352ZM7.30718 6.34942C6.71376 6.34942 6.23037 6.83282 6.23037 7.42623C6.23037 8.02005 6.71376 8.50291 7.30705 8.50291C7.90086 8.50291 8.38372 8.02005 8.38372 7.42623C8.38372 6.83282 7.90099 6.34942 7.30718 6.34942ZM25.2858 10.4082C23.6732 10.4082 22.3606 9.09567 22.3606 7.48237C22.3606 5.86972 23.673 4.55716 25.2858 4.55716C26.8991 4.55716 28.2116 5.86959 28.2116 7.48237C28.2116 9.09567 26.8991 10.4082 25.2858 10.4082ZM25.2858 6.40569C24.6925 6.40569 24.2097 6.88855 24.2097 7.48237C24.2097 8.07618 24.6925 8.55918 25.2858 8.55918C25.8796 8.55918 26.3625 8.07618 26.3625 7.48237C26.3625 6.88855 25.8796 6.40569 25.2858 6.40569Z" fill="#3664F5"/>
</g>
<defs>
<clipPath id="clip0_153_333">
<rect width="56" height="56" fill="white" transform="translate(0.5)"/>
</clipPath>
</defs>
</svg>
