<svg width="16" height="22" viewBox="0 0 16 22" fill="none" xmlns="http://www.w3.org/2000/svg">
<g clip-path="url(#clip0_1_104)">
<path d="M13.9416 13.3706C13.0136 13.3706 12.1024 13.2254 11.2389 12.9401C10.8158 12.7957 10.2956 12.9281 10.0374 13.1934L8.33305 14.48C6.35649 13.4249 5.13896 12.2077 4.09828 10.246L5.34703 8.58608C5.67146 8.26208 5.78783 7.78879 5.64841 7.34471C5.36183 6.47668 5.21625 5.56591 5.21625 4.63748C5.21629 3.96679 4.67064 3.42114 3.99999 3.42114H1.2163C0.545645 3.42114 0 3.96679 0 4.63745C0 12.3249 6.25413 18.579 13.9416 18.579C14.6123 18.579 15.1579 18.0334 15.1579 17.3627V14.5868C15.1579 13.9162 14.6122 13.3706 13.9416 13.3706Z" fill="#D2D2D2"/>
</g>
<defs>
<clipPath id="clip0_1_104">
<path d="M0 0.421143H15.1579V21.579H0V0.421143Z" fill="white"/>
</clipPath>
</defs>
</svg>
