<svg width="16" height="13" viewBox="0 0 16 13" fill="none" xmlns="http://www.w3.org/2000/svg">
<path d="M15.3564 0L12.5977 6.4209C13.3301 6.56738 13.916 6.90918 14.3555 7.44629C14.7949 7.9834 15.0146 8.60189 15.0146 9.30176C15.0146 10.1156 14.7298 10.8154 14.1602 11.4014C13.5905 11.971 12.8906 12.2559 12.0605 12.2559C11.2305 12.2559 10.5225 11.971 9.93652 11.4014C9.35059 10.8154 9.05762 10.1156 9.05762 9.30176C9.05762 8.8623 9.26107 8.09733 9.66797 7.00684L12.5977 0H15.3564ZM0 9.30176C0 8.8623 0.203451 8.09733 0.610352 7.00684L3.56445 0H6.29883L3.56445 6.4209C4.29688 6.56738 4.87467 6.90918 5.29785 7.44629C5.7373 7.96712 5.95703 8.58561 5.95703 9.30176C5.95703 10.1156 5.6722 10.8154 5.10254 11.4014C4.53288 11.971 3.83301 12.2559 3.00293 12.2559C2.17285 12.2559 1.46484 11.971 0.878906 11.4014C0.292969 10.8154 0 10.1156 0 9.30176Z" fill="#3664F5"/>
</svg>
