<svg width="40" height="56" viewBox="0 0 40 56" fill="none" xmlns="http://www.w3.org/2000/svg">
<path d="M39.6851 15.4237L25.3716 1.11015C25.2717 1.01027 25.1532 0.931053 25.0227 0.877007C24.8922 0.822962 24.7523 0.795152 24.6111 0.795166L4.44204 0.795166C1.99265 0.795166 0 2.78781 0 5.2372V50.7628C0 53.2121 1.99265 55.2048 4.44204 55.2048H35.558C38.0074 55.2048 40 53.2121 40 50.7628V16.1841C40 15.8989 39.8867 15.6254 39.6851 15.4237ZM25.6865 4.46665L36.3286 15.1085H27.9778C26.7144 15.1085 25.6867 14.0807 25.6867 12.8171V4.46665H25.6865ZM37.8493 50.7628C37.8493 52.0262 36.8215 53.0541 35.558 53.0541H4.44204C3.17861 53.0541 2.15067 52.0262 2.15067 50.7628V5.2372C2.15067 3.97377 3.17861 2.94583 4.44204 2.94583H23.5358V12.8174C23.5358 15.2667 25.5283 17.2594 27.9777 17.2594H37.8493V50.7628Z" fill="#3664F5"/>
<path d="M28.6023 28.1074H11.3976C10.8038 28.1074 10.3223 28.5889 10.3223 29.1828C10.3223 29.7766 10.8038 30.2581 11.3976 30.2581H28.6023C29.1963 30.2581 29.6776 29.7766 29.6776 29.1828C29.6776 28.5889 29.1963 28.1074 28.6023 28.1074ZM28.6023 32.9103H11.3976C10.8038 32.9103 10.3223 33.3919 10.3223 33.9857C10.3223 34.5795 10.8038 35.061 11.3976 35.061H28.6023C29.1963 35.061 29.6776 34.5795 29.6776 33.9857C29.6776 33.3919 29.1963 32.9103 28.6023 32.9103ZM28.6023 37.7133H11.3976C10.8038 37.7133 10.3223 38.1948 10.3223 38.7886C10.3223 39.3824 10.8038 39.8639 11.3976 39.8639H28.6023C29.1963 39.8639 29.6776 39.3824 29.6776 38.7886C29.6776 38.1948 29.1963 37.7133 28.6023 37.7133ZM23.0108 42.5163H11.3976C10.8038 42.5163 10.3223 42.9978 10.3223 43.5916C10.3223 44.1855 10.8038 44.667 11.3976 44.667H23.0108C23.6048 44.667 24.0861 44.1855 24.0861 43.5916C24.0861 42.9978 23.6048 42.5163 23.0108 42.5163Z" fill="#3664F5"/>
</svg>
