<svg width="56" height="56" viewBox="0 0 56 56" fill="none" xmlns="http://www.w3.org/2000/svg">
<g clip-path="url(#clip0_153_346)">
<path d="M50.8352 35.1759L50.8351 35.1759C50.0128 37.0662 49.032 38.8835 47.9032 40.6082L52.5848 45.2894L50.8352 35.1759ZM50.8352 35.1759C53.7462 28.4687 54.9026 20.6381 54.3752 11.2429L54.3752 11.2423M50.8352 35.1759L54.3752 11.2423M54.3752 11.2423C54.3455 10.768 54.2164 10.3052 53.9962 9.88403C53.776 9.46286 53.4697 9.09271 53.0972 8.79762C52.7246 8.50254 52.2942 8.28911 51.8338 8.17121C51.3734 8.05332 50.8933 8.03358 50.4248 8.11328L50.4237 8.11348M54.3752 11.2423L50.4237 8.11348M50.4237 8.11348C45.7423 8.96432 41.3348 7.82324 37.7036 6.11771C34.0724 4.41219 31.2238 2.14502 29.6643 0.753563L29.6642 0.75348M50.4237 8.11348L29.6642 0.75348M29.6642 0.75348C29.2061 0.345731 28.6142 0.120459 28.0009 0.120459C27.3876 0.120459 26.7956 0.345731 26.3375 0.75348L26.3374 0.753545M29.6642 0.75348L26.3374 0.753545M26.3374 0.753545C24.7771 2.14502 21.929 4.4123 18.2978 6.11782C14.6667 7.82335 10.2586 8.96433 5.57413 8.11303L5.57298 8.11284M26.3374 0.753545L5.57298 8.11284M5.57298 8.11284C5.10458 8.03334 4.6247 8.05324 4.16449 8.17124C3.70428 8.28924 3.27403 8.5027 2.90167 8.79778C2.52931 9.09285 2.22317 9.46293 2.00312 9.884C1.78307 10.3051 1.65403 10.7677 1.62438 11.2419H1.62438M5.57298 8.11284L1.62438 11.2419M1.62438 11.2419L1.62434 11.2425M1.62438 11.2419L1.62434 11.2425M1.62434 11.2425C1.09872 20.6381 2.25253 28.4687 5.16352 35.1754L5.16356 35.1755M1.62434 11.2425L5.16356 35.1755M5.16356 35.1755C5.98653 37.0659 6.96776 38.8832 8.09675 40.6082L3.41517 45.2894C3.14091 45.5612 2.94821 45.9044 2.85886 46.28C2.76952 46.6557 2.7871 47.0489 2.90961 47.4151C3.03212 47.7813 3.25467 48.1059 3.55208 48.3521C3.8495 48.5984 4.2099 48.7565 4.59252 48.8086L4.59282 48.8086M5.16356 35.1755L4.59282 48.8086M4.59282 48.8086L8.89163 49.3804M4.59282 48.8086L8.89163 49.3804M8.89163 49.3804C8.89165 49.3804 8.89167 49.3804 8.89169 49.3804C9.01132 49.3964 9.12238 49.4513 9.20773 49.5367C9.29308 49.6221 9.34799 49.7331 9.364 49.8527C9.364 49.8528 9.364 49.8528 9.36401 49.8528L9.93625 54.1521L9.93628 54.1523L8.90488 49.2813L8.89163 49.3804ZM46.0637 54.1525L46.0637 54.1528C46.0118 54.5355 45.8537 54.8961 45.6075 55.1936C45.3612 55.4912 45.0365 55.7138 44.6703 55.8364C44.304 55.959 43.9107 55.9766 43.5349 55.8872C43.1591 55.7978 42.8159 55.605 42.5441 55.3306L38.0017 50.7878C35.2816 52.691 32.3705 54.3057 29.3156 55.6058C28.8999 55.7841 28.4523 55.8761 28 55.8761C27.5477 55.8761 27.1001 55.7841 26.6844 55.6058C23.6296 54.3056 20.7185 52.6908 17.9983 50.7877L13.4559 55.3301C13.4558 55.3302 13.4558 55.3303 13.4557 55.3303L13.4556 55.3304L13.3849 55.2597L46.0637 54.1525ZM46.0637 54.1525L46.636 49.8528C46.652 49.7333 46.7069 49.6223 46.7923 49.5371C46.8776 49.4519 46.9887 49.3971 47.1083 49.3813L47.1083 49.3813M46.0637 54.1525L47.1083 49.3813M47.1083 49.3813L51.4068 48.8091L47.1083 49.3813ZM53.1433 46.286C53.2322 46.6638 53.213 47.0591 53.0879 47.4265C53.0878 47.4267 53.0878 47.4269 53.0877 47.4271L53.1433 46.286ZM53.1433 46.286C53.0544 45.9081 52.861 45.5628 52.5851 45.2897L53.1433 46.286ZM12.3858 54.2611L12.3847 54.2622C12.3111 54.3381 12.2172 54.3914 12.1143 54.4159C12.0114 54.4404 11.9036 54.4351 11.8036 54.4005L11.8016 54.3998C11.7042 54.3685 11.618 54.3098 11.5531 54.2308C11.4883 54.1518 11.4476 54.0557 11.4359 53.9542L11.4356 53.9524L10.8616 49.6531L10.8616 49.653C10.8012 49.2043 10.5952 48.788 10.2751 48.4679C9.95508 48.1478 9.53878 47.9416 9.09018 47.8811L9.09001 47.8811L4.7907 47.3088L4.78892 47.3086C4.68747 47.2969 4.59152 47.2563 4.51257 47.1915C4.43362 47.1267 4.37502 47.0406 4.34379 46.9433L4.34307 46.9412C4.30847 46.8412 4.30311 46.7335 4.32761 46.6305C4.35211 46.5276 4.40545 46.4338 4.48139 46.3601L4.48245 46.3591L8.96054 41.8823C11.1495 44.9225 13.782 47.6172 16.7704 49.8764L12.3858 54.2611ZM46.9082 47.8815L46.9081 47.8815C46.4596 47.9418 46.0433 48.1478 45.7232 48.4678C45.4032 48.7878 45.1971 49.204 45.1366 49.6525L45.1366 49.6527L44.5639 53.9524L44.5637 53.9542C44.5521 54.0557 44.5114 54.1518 44.4466 54.2308C44.3819 54.3098 44.2957 54.3685 44.1984 54.3998L44.1963 54.4005C44.0963 54.4352 43.9884 54.4406 43.8854 54.4161C43.7824 54.3916 43.6886 54.3382 43.6149 54.2622L43.6138 54.2611L39.2295 49.8764C42.2179 47.6172 44.8505 44.9225 47.0395 41.8823L51.5158 46.3582L51.5169 46.3593C51.5928 46.4329 51.6461 46.5267 51.6706 46.6297C51.6951 46.7326 51.6898 46.8404 51.6552 46.9403L51.6545 46.9424C51.6232 47.0397 51.5645 47.1259 51.4855 47.1907C51.4065 47.2555 51.3105 47.2961 51.209 47.3077L51.2071 47.3079L46.9082 47.8815ZM28.7171 54.2167C28.4905 54.3138 28.2465 54.3638 28 54.3638C27.7535 54.3638 27.5095 54.3138 27.2829 54.2167C18.5539 50.4539 12.22 45.0666 8.21659 37.9576C4.21257 30.8476 2.53464 22.0063 3.13433 11.3275C3.15069 11.0666 3.22162 10.8121 3.34251 10.5803C3.46346 10.3484 3.63174 10.1445 3.83645 9.98174C4.04116 9.81899 4.27776 9.70101 4.53094 9.63545C4.78387 9.56995 5.04773 9.55822 5.30547 9.60101C10.3268 10.5147 15.0182 9.31336 18.8605 7.52161C22.7027 5.72982 25.7015 3.34503 27.3416 1.88286C27.5228 1.72146 27.7571 1.63229 27.9998 1.63229C28.2425 1.63229 28.4767 1.72145 28.658 1.88283C30.2984 3.345 33.2974 5.72883 37.1397 7.52014C40.9819 9.3114 45.6732 10.5128 50.6945 9.60102C50.9522 9.55829 51.216 9.57007 51.4689 9.6356C51.722 9.70119 51.9586 9.81917 52.1632 9.98192C52.3679 10.1447 52.5362 10.3486 52.6571 10.5804C52.778 10.8121 52.8489 11.0667 52.8652 11.3275C53.4651 22.0063 51.7873 30.8476 47.7834 37.9576C43.78 45.0666 37.4461 50.4539 28.7171 54.2167Z" fill="#3664F5" stroke="#3664F5" stroke-width="0.2"/>
<path d="M50.09 13.4104L50.09 13.4111C50.3748 22.8512 48.7897 30.5849 45.1996 36.8259C41.6089 43.068 36.0177 47.8079 28.307 51.2691L28.266 51.1778L28.307 51.2691C28.2096 51.3127 28.1041 51.3353 27.9974 51.3353C27.8907 51.3353 27.7852 51.3127 27.6878 51.2691L27.7288 51.1778L27.6878 51.2691C19.9786 47.8079 14.388 43.0683 10.7975 36.8265C7.20752 30.5856 5.6222 22.8521 5.90695 13.4116L5.90697 13.4108H5.90698C5.91091 13.308 5.93562 13.2071 5.97963 13.1141C6.02364 13.0211 6.08602 12.938 6.16302 12.8698C6.24002 12.8016 6.33004 12.7497 6.42765 12.7173C6.52525 12.6848 6.62842 12.6725 6.73093 12.681L6.73172 12.6811C7.41082 12.7429 8.09992 12.7747 8.7789 12.7747C17.0303 12.7743 24.0653 8.19351 27.5294 5.45718C27.5294 5.45718 27.5294 5.45717 27.5294 5.45717L27.5914 5.53564C27.7073 5.44409 27.8506 5.39429 27.9983 5.39429C28.1459 5.39429 28.2893 5.44409 28.4052 5.53564L50.09 13.4104ZM50.09 13.4104C50.0862 13.3075 50.0615 13.2065 50.0175 13.1135C49.9734 13.0204 49.911 12.9373 49.8339 12.869C49.7568 12.8008 49.6667 12.7489 49.569 12.7165C49.4713 12.6841 49.3681 12.6719 49.2655 12.6806L49.2648 12.6806C48.5842 12.7429 47.9011 12.7743 47.2176 12.7747C38.9675 12.7747 31.9326 8.19396 28.4672 5.45718L50.09 13.4104ZM43.8224 36.1327C40.4302 41.9862 35.197 46.4588 28 49.7488C20.8032 46.4588 15.5702 41.9862 12.1784 36.133C8.79299 30.2905 7.23714 23.0639 7.40421 14.2473C7.8647 14.2736 8.32643 14.285 8.78371 14.285C17.1386 14.285 24.2489 9.88151 28.0022 7.00485C31.7551 9.88065 38.8671 14.285 47.222 14.285C47.6816 14.2849 48.141 14.2715 48.5998 14.2448C48.7651 23.0626 47.2084 30.2899 43.8224 36.1327Z" fill="#3664F5" stroke="#3664F5" stroke-width="0.2"/>
<path d="M28.0001 18.2439H28C26.0704 18.2439 24.1842 18.8161 22.5798 19.8881C20.9754 20.9601 19.725 22.4838 18.9866 24.2665C18.2482 26.0491 18.055 28.0108 18.4314 29.9032C18.8078 31.7957 19.737 33.5341 21.1014 34.8985C22.4658 36.2629 24.2042 37.1921 26.0967 37.5685C27.9892 37.945 29.9508 37.7518 31.7335 37.0134C33.5162 36.275 35.0399 35.0245 36.1119 33.4201C37.1839 31.8157 37.7561 29.9295 37.7561 27.9999V27.9998C37.7527 25.4134 36.7237 22.9339 34.8949 21.1051C33.066 19.2762 30.5865 18.2473 28.0001 18.2439ZM27.9999 36.2435C26.3695 36.2435 24.7757 35.76 23.4201 34.8542C22.0645 33.9484 21.0079 32.6609 20.3839 31.1546C19.76 29.6483 19.5968 27.9908 19.9148 26.3917C20.2329 24.7926 21.018 23.3237 22.1709 22.1709C23.3238 21.018 24.7927 20.2328 26.3918 19.9148C27.9909 19.5967 29.6484 19.7599 31.1547 20.3839C32.661 21.0078 33.9485 22.0644 34.8543 23.4201C35.7601 24.7757 36.2435 26.3694 36.2436 27.9998C36.2412 30.1854 35.3719 32.2809 33.8264 33.8263C32.2809 35.3718 30.1855 36.2411 27.9999 36.2435Z" fill="#3664F5" stroke="#3664F5" stroke-width="0.2"/>
<mask id="path-4-outside-1_153_346" maskUnits="userSpaceOnUse" x="11.9062" y="11.9062" width="32" height="32" fill="black">
<rect fill="white" x="11.9062" y="11.9062" width="32" height="32"/>
<path d="M41.4037 24.5696L40.6381 24.5433C40.3498 23.4819 39.9279 22.4614 39.3825 21.5062L39.904 20.9475C40.2149 20.6164 40.3843 20.177 40.3761 19.7228C40.3679 19.2687 40.1828 18.8356 39.8602 18.5159L37.4824 16.1376C37.1625 15.8152 36.7295 15.6303 36.2755 15.6221C35.8214 15.6139 35.382 15.7832 35.0508 16.0939L34.489 16.6189C33.5354 16.073 32.5163 15.6504 31.4563 15.3611L31.43 14.5963C31.4163 14.142 31.2257 13.7111 30.8988 13.3954C30.5719 13.0796 30.1345 12.9041 29.68 12.9063H26.3187C25.8644 12.9043 25.4272 13.0799 25.1003 13.3954C24.7735 13.711 24.5827 14.1418 24.5687 14.5959L24.5425 15.362C23.481 15.6503 22.4605 16.0722 21.5053 16.6176L20.9475 16.0961C20.6164 15.7852 20.1771 15.6158 19.723 15.624C19.269 15.6322 18.836 15.8172 18.5163 16.1398L16.1381 18.5176C15.8157 18.8376 15.6309 19.2708 15.6231 19.725C15.6154 20.1792 15.7852 20.6185 16.0965 20.9493L16.6215 21.5106C16.0751 22.4644 15.6517 23.4835 15.3615 24.5438L14.5959 24.57C14.1417 24.5838 13.7108 24.7745 13.3952 25.1014C13.0796 25.4283 12.9041 25.8656 12.9063 26.32V29.6835C12.9041 30.1379 13.0796 30.5752 13.3952 30.9021C13.7108 31.229 14.1417 31.4197 14.5959 31.4335L15.362 31.4598C15.6501 32.5213 16.072 33.5418 16.6176 34.4969L16.0965 35.0525C15.7855 35.3836 15.6161 35.823 15.6242 36.2772C15.6324 36.7314 15.8176 37.1645 16.1403 37.4841L18.5176 39.8615C18.8374 40.1843 19.2705 40.3694 19.7248 40.3776C20.179 40.3858 20.6185 40.2163 20.9497 39.9053L21.511 39.3803C22.4646 39.9264 23.4837 40.3492 24.5438 40.6385L24.57 41.4041C24.584 41.8583 24.7748 42.289 25.1017 42.6046C25.4285 42.9202 25.8657 43.0957 26.32 43.0938H29.6831C30.1375 43.0959 30.5748 42.9205 30.9017 42.6048C31.2286 42.2892 31.4193 41.8584 31.4331 41.4041L31.4593 40.6381C32.5208 40.3498 33.5413 39.9279 34.4965 39.3825L35.0551 39.904C35.3862 40.215 35.8257 40.3844 36.2799 40.3763C36.734 40.3681 37.1671 40.1829 37.4868 39.8602L39.8641 37.4828C40.187 37.1632 40.3722 36.7301 40.3804 36.2759C40.3885 35.8217 40.219 35.3822 39.9079 35.0512L39.3829 34.4895C39.9281 33.5356 40.35 32.5164 40.6385 31.4563L41.4037 31.43C41.858 31.4163 42.289 31.2257 42.6047 30.8988C42.9204 30.5719 43.0959 30.1345 43.0938 29.68V26.3183C43.0956 25.864 42.9199 25.427 42.6042 25.1004C42.2885 24.7737 41.8578 24.5833 41.4037 24.5696ZM41.7813 29.6818C41.7813 29.7953 41.7373 29.9044 41.6584 29.986C41.5796 30.0676 41.4721 30.1154 41.3586 30.1193L40.1 30.163C39.9559 30.1679 39.8175 30.2201 39.7061 30.3115C39.5947 30.4029 39.5165 30.5285 39.4835 30.6688C39.1914 31.929 38.6923 33.1322 38.0065 34.2291C37.93 34.3517 37.8961 34.4961 37.91 34.6399C37.9239 34.7837 37.9849 34.9189 38.0835 35.0245L38.9445 35.9468C39.0219 36.0298 39.0641 36.1396 39.062 36.253C39.06 36.3665 39.0139 36.4747 38.9336 36.5549L36.5562 38.9323C36.4761 39.0126 36.3678 39.0587 36.2544 39.0607C36.1409 39.0627 36.0311 39.0206 35.9481 38.9432L35.0293 38.0848C34.9238 37.9863 34.7886 37.9254 34.6449 37.9115C34.5012 37.8976 34.3569 37.9314 34.2344 38.0078C33.1357 38.6935 31.9308 39.192 30.6688 39.4831C30.528 39.5156 30.4019 39.5936 30.31 39.705C30.218 39.8165 30.1655 39.9551 30.1604 40.0995L30.1166 41.3591C30.1127 41.4724 30.0648 41.5798 29.9832 41.6586C29.9016 41.7374 29.7926 41.7813 29.6791 41.7813H26.3187C26.2052 41.7813 26.0961 41.7373 26.0145 41.6584C25.9329 41.5796 25.8851 41.4721 25.8812 41.3586L25.8375 40.1C25.8325 39.9559 25.7803 39.8174 25.6888 39.706C25.5973 39.5946 25.4716 39.5164 25.3313 39.4835C24.0709 39.1913 22.8676 38.6922 21.7705 38.0065C21.6479 37.93 21.5035 37.8961 21.3597 37.91C21.2159 37.9239 21.0807 37.9849 20.9751 38.0835L20.0533 38.9445C19.9706 39.0224 19.8608 39.0649 19.7472 39.0628C19.6336 39.0608 19.5254 39.0144 19.4456 38.9336L17.0678 36.5562C16.9875 36.476 16.9415 36.3677 16.9396 36.2543C16.9376 36.1408 16.9798 36.031 17.0573 35.9481L17.9152 35.0293C18.0137 34.9238 18.0746 34.7886 18.0886 34.6449C18.1025 34.5012 18.0686 34.3569 17.9922 34.2344C17.3065 33.1357 16.8079 31.9308 16.517 30.6688C16.4844 30.528 16.4063 30.4019 16.2947 30.3101C16.1832 30.2182 16.0445 30.1658 15.9001 30.1608L14.641 30.1171C14.5276 30.1131 14.4202 30.0653 14.3414 29.9837C14.2627 29.902 14.2187 29.793 14.2188 29.6796V26.3183C14.2187 26.2048 14.2627 26.0958 14.3414 26.0142C14.4202 25.9326 14.5276 25.8847 14.641 25.8808L15.8996 25.837C16.044 25.8321 16.1828 25.7796 16.2943 25.6878C16.4058 25.5959 16.484 25.4698 16.5165 25.3291C16.8084 24.0687 17.3075 22.8656 17.9935 21.7687C18.07 21.6461 18.104 21.5018 18.09 21.3579C18.0761 21.2141 18.0151 21.0789 17.9165 20.9733L17.0555 20.0511C16.9781 19.9681 16.9359 19.8584 16.9378 19.7449C16.9398 19.6314 16.9857 19.5232 17.066 19.443L19.4443 17.0651C19.5245 16.985 19.6326 16.9391 19.746 16.9371C19.8594 16.9352 19.969 16.9773 20.052 17.0546L20.9707 17.913C21.0763 18.0116 21.2115 18.0726 21.3553 18.0865C21.4991 18.1005 21.6435 18.0665 21.7661 17.99C22.8647 17.305 24.0695 16.8074 25.3313 16.5174C25.472 16.4848 25.5981 16.4067 25.69 16.2952C25.7818 16.1836 25.8343 16.0449 25.8392 15.9005L25.883 14.6414C25.8868 14.528 25.9346 14.4205 26.0162 14.3416C26.0979 14.2628 26.207 14.2187 26.3205 14.2188H29.6835C29.797 14.2187 29.9061 14.2628 29.9877 14.3416C30.0694 14.4205 30.1172 14.528 30.121 14.6414L30.1648 15.8996C30.1696 16.0434 30.2215 16.1817 30.3126 16.293C30.4037 16.4044 30.5288 16.4828 30.6688 16.5161C31.9289 16.8084 33.1319 17.3077 34.2287 17.9935C34.3513 18.0701 34.4958 18.1041 34.6397 18.0902C34.7836 18.0763 34.9189 18.0152 35.0245 17.9165L35.9468 17.0555C36.0297 16.9781 36.1395 16.9359 36.253 16.9378C36.3664 16.9398 36.4747 16.9857 36.5549 17.066L38.9323 19.4438C39.0126 19.524 39.0587 19.6322 39.0607 19.7457C39.0627 19.8591 39.0206 19.969 38.9432 20.052L38.0848 20.9707C37.9863 21.0763 37.9254 21.2114 37.9115 21.3551C37.8976 21.4988 37.9314 21.6431 38.0078 21.7656C38.6935 22.8644 39.192 24.0693 39.4831 25.3313C39.5156 25.472 39.5936 25.5982 39.705 25.6901C39.8165 25.782 39.9551 25.8346 40.0995 25.8396L41.3586 25.8834C41.472 25.8874 41.5794 25.9352 41.6582 26.0168C41.7369 26.0984 41.7809 26.2075 41.7808 26.3209L41.7813 29.6818Z"/>
</mask>
<path d="M41.4037 24.5696L40.6381 24.5433C40.3498 23.4819 39.9279 22.4614 39.3825 21.5062L39.904 20.9475C40.2149 20.6164 40.3843 20.177 40.3761 19.7228C40.3679 19.2687 40.1828 18.8356 39.8602 18.5159L37.4824 16.1376C37.1625 15.8152 36.7295 15.6303 36.2755 15.6221C35.8214 15.6139 35.382 15.7832 35.0508 16.0939L34.489 16.6189C33.5354 16.073 32.5163 15.6504 31.4563 15.3611L31.43 14.5963C31.4163 14.142 31.2257 13.7111 30.8988 13.3954C30.5719 13.0796 30.1345 12.9041 29.68 12.9063H26.3187C25.8644 12.9043 25.4272 13.0799 25.1003 13.3954C24.7735 13.711 24.5827 14.1418 24.5687 14.5959L24.5425 15.362C23.481 15.6503 22.4605 16.0722 21.5053 16.6176L20.9475 16.0961C20.6164 15.7852 20.1771 15.6158 19.723 15.624C19.269 15.6322 18.836 15.8172 18.5163 16.1398L16.1381 18.5176C15.8157 18.8376 15.6309 19.2708 15.6231 19.725C15.6154 20.1792 15.7852 20.6185 16.0965 20.9493L16.6215 21.5106C16.0751 22.4644 15.6517 23.4835 15.3615 24.5438L14.5959 24.57C14.1417 24.5838 13.7108 24.7745 13.3952 25.1014C13.0796 25.4283 12.9041 25.8656 12.9063 26.32V29.6835C12.9041 30.1379 13.0796 30.5752 13.3952 30.9021C13.7108 31.229 14.1417 31.4197 14.5959 31.4335L15.362 31.4598C15.6501 32.5213 16.072 33.5418 16.6176 34.4969L16.0965 35.0525C15.7855 35.3836 15.6161 35.823 15.6242 36.2772C15.6324 36.7314 15.8176 37.1645 16.1403 37.4841L18.5176 39.8615C18.8374 40.1843 19.2705 40.3694 19.7248 40.3776C20.179 40.3858 20.6185 40.2163 20.9497 39.9053L21.511 39.3803C22.4646 39.9264 23.4837 40.3492 24.5438 40.6385L24.57 41.4041C24.584 41.8583 24.7748 42.289 25.1017 42.6046C25.4285 42.9202 25.8657 43.0957 26.32 43.0938H29.6831C30.1375 43.0959 30.5748 42.9205 30.9017 42.6048C31.2286 42.2892 31.4193 41.8584 31.4331 41.4041L31.4593 40.6381C32.5208 40.3498 33.5413 39.9279 34.4965 39.3825L35.0551 39.904C35.3862 40.215 35.8257 40.3844 36.2799 40.3763C36.734 40.3681 37.1671 40.1829 37.4868 39.8602L39.8641 37.4828C40.187 37.1632 40.3722 36.7301 40.3804 36.2759C40.3885 35.8217 40.219 35.3822 39.9079 35.0512L39.3829 34.4895C39.9281 33.5356 40.35 32.5164 40.6385 31.4563L41.4037 31.43C41.858 31.4163 42.289 31.2257 42.6047 30.8988C42.9204 30.5719 43.0959 30.1345 43.0938 29.68V26.3183C43.0956 25.864 42.9199 25.427 42.6042 25.1004C42.2885 24.7737 41.8578 24.5833 41.4037 24.5696ZM41.7813 29.6818C41.7813 29.7953 41.7373 29.9044 41.6584 29.986C41.5796 30.0676 41.4721 30.1154 41.3586 30.1193L40.1 30.163C39.9559 30.1679 39.8175 30.2201 39.7061 30.3115C39.5947 30.4029 39.5165 30.5285 39.4835 30.6688C39.1914 31.929 38.6923 33.1322 38.0065 34.2291C37.93 34.3517 37.8961 34.4961 37.91 34.6399C37.9239 34.7837 37.9849 34.9189 38.0835 35.0245L38.9445 35.9468C39.0219 36.0298 39.0641 36.1396 39.062 36.253C39.06 36.3665 39.0139 36.4747 38.9336 36.5549L36.5562 38.9323C36.4761 39.0126 36.3678 39.0587 36.2544 39.0607C36.1409 39.0627 36.0311 39.0206 35.9481 38.9432L35.0293 38.0848C34.9238 37.9863 34.7886 37.9254 34.6449 37.9115C34.5012 37.8976 34.3569 37.9314 34.2344 38.0078C33.1357 38.6935 31.9308 39.192 30.6688 39.4831C30.528 39.5156 30.4019 39.5936 30.31 39.705C30.218 39.8165 30.1655 39.9551 30.1604 40.0995L30.1166 41.3591C30.1127 41.4724 30.0648 41.5798 29.9832 41.6586C29.9016 41.7374 29.7926 41.7813 29.6791 41.7813H26.3187C26.2052 41.7813 26.0961 41.7373 26.0145 41.6584C25.9329 41.5796 25.8851 41.4721 25.8812 41.3586L25.8375 40.1C25.8325 39.9559 25.7803 39.8174 25.6888 39.706C25.5973 39.5946 25.4716 39.5164 25.3313 39.4835C24.0709 39.1913 22.8676 38.6922 21.7705 38.0065C21.6479 37.93 21.5035 37.8961 21.3597 37.91C21.2159 37.9239 21.0807 37.9849 20.9751 38.0835L20.0533 38.9445C19.9706 39.0224 19.8608 39.0649 19.7472 39.0628C19.6336 39.0608 19.5254 39.0144 19.4456 38.9336L17.0678 36.5562C16.9875 36.476 16.9415 36.3677 16.9396 36.2543C16.9376 36.1408 16.9798 36.031 17.0573 35.9481L17.9152 35.0293C18.0137 34.9238 18.0746 34.7886 18.0886 34.6449C18.1025 34.5012 18.0686 34.3569 17.9922 34.2344C17.3065 33.1357 16.8079 31.9308 16.517 30.6688C16.4844 30.528 16.4063 30.4019 16.2947 30.3101C16.1832 30.2182 16.0445 30.1658 15.9001 30.1608L14.641 30.1171C14.5276 30.1131 14.4202 30.0653 14.3414 29.9837C14.2627 29.902 14.2187 29.793 14.2188 29.6796V26.3183C14.2187 26.2048 14.2627 26.0958 14.3414 26.0142C14.4202 25.9326 14.5276 25.8847 14.641 25.8808L15.8996 25.837C16.044 25.8321 16.1828 25.7796 16.2943 25.6878C16.4058 25.5959 16.484 25.4698 16.5165 25.3291C16.8084 24.0687 17.3075 22.8656 17.9935 21.7687C18.07 21.6461 18.104 21.5018 18.09 21.3579C18.0761 21.2141 18.0151 21.0789 17.9165 20.9733L17.0555 20.0511C16.9781 19.9681 16.9359 19.8584 16.9378 19.7449C16.9398 19.6314 16.9857 19.5232 17.066 19.443L19.4443 17.0651C19.5245 16.985 19.6326 16.9391 19.746 16.9371C19.8594 16.9352 19.969 16.9773 20.052 17.0546L20.9707 17.913C21.0763 18.0116 21.2115 18.0726 21.3553 18.0865C21.4991 18.1005 21.6435 18.0665 21.7661 17.99C22.8647 17.305 24.0695 16.8074 25.3313 16.5174C25.472 16.4848 25.5981 16.4067 25.69 16.2952C25.7818 16.1836 25.8343 16.0449 25.8392 15.9005L25.883 14.6414C25.8868 14.528 25.9346 14.4205 26.0162 14.3416C26.0979 14.2628 26.207 14.2187 26.3205 14.2188H29.6835C29.797 14.2187 29.9061 14.2628 29.9877 14.3416C30.0694 14.4205 30.1172 14.528 30.121 14.6414L30.1648 15.8996C30.1696 16.0434 30.2215 16.1817 30.3126 16.293C30.4037 16.4044 30.5288 16.4828 30.6688 16.5161C31.9289 16.8084 33.1319 17.3077 34.2287 17.9935C34.3513 18.0701 34.4958 18.1041 34.6397 18.0902C34.7836 18.0763 34.9189 18.0152 35.0245 17.9165L35.9468 17.0555C36.0297 16.9781 36.1395 16.9359 36.253 16.9378C36.3664 16.9398 36.4747 16.9857 36.5549 17.066L38.9323 19.4438C39.0126 19.524 39.0587 19.6322 39.0607 19.7457C39.0627 19.8591 39.0206 19.969 38.9432 20.052L38.0848 20.9707C37.9863 21.0763 37.9254 21.2114 37.9115 21.3551C37.8976 21.4988 37.9314 21.6431 38.0078 21.7656C38.6935 22.8644 39.192 24.0693 39.4831 25.3313C39.5156 25.472 39.5936 25.5982 39.705 25.6901C39.8165 25.782 39.9551 25.8346 40.0995 25.8396L41.3586 25.8834C41.472 25.8874 41.5794 25.9352 41.6582 26.0168C41.7369 26.0984 41.7809 26.2075 41.7808 26.3209L41.7813 29.6818Z" fill="#3664F5"/>
<path d="M41.4037 24.5696L40.6381 24.5433C40.3498 23.4819 39.9279 22.4614 39.3825 21.5062L39.904 20.9475C40.2149 20.6164 40.3843 20.177 40.3761 19.7228C40.3679 19.2687 40.1828 18.8356 39.8602 18.5159L37.4824 16.1376C37.1625 15.8152 36.7295 15.6303 36.2755 15.6221C35.8214 15.6139 35.382 15.7832 35.0508 16.0939L34.489 16.6189C33.5354 16.073 32.5163 15.6504 31.4563 15.3611L31.43 14.5963C31.4163 14.142 31.2257 13.7111 30.8988 13.3954C30.5719 13.0796 30.1345 12.9041 29.68 12.9063H26.3187C25.8644 12.9043 25.4272 13.0799 25.1003 13.3954C24.7735 13.711 24.5827 14.1418 24.5687 14.5959L24.5425 15.362C23.481 15.6503 22.4605 16.0722 21.5053 16.6176L20.9475 16.0961C20.6164 15.7852 20.1771 15.6158 19.723 15.624C19.269 15.6322 18.836 15.8172 18.5163 16.1398L16.1381 18.5176C15.8157 18.8376 15.6309 19.2708 15.6231 19.725C15.6154 20.1792 15.7852 20.6185 16.0965 20.9493L16.6215 21.5106C16.0751 22.4644 15.6517 23.4835 15.3615 24.5438L14.5959 24.57C14.1417 24.5838 13.7108 24.7745 13.3952 25.1014C13.0796 25.4283 12.9041 25.8656 12.9063 26.32V29.6835C12.9041 30.1379 13.0796 30.5752 13.3952 30.9021C13.7108 31.229 14.1417 31.4197 14.5959 31.4335L15.362 31.4598C15.6501 32.5213 16.072 33.5418 16.6176 34.4969L16.0965 35.0525C15.7855 35.3836 15.6161 35.823 15.6242 36.2772C15.6324 36.7314 15.8176 37.1645 16.1403 37.4841L18.5176 39.8615C18.8374 40.1843 19.2705 40.3694 19.7248 40.3776C20.179 40.3858 20.6185 40.2163 20.9497 39.9053L21.511 39.3803C22.4646 39.9264 23.4837 40.3492 24.5438 40.6385L24.57 41.4041C24.584 41.8583 24.7748 42.289 25.1017 42.6046C25.4285 42.9202 25.8657 43.0957 26.32 43.0938H29.6831C30.1375 43.0959 30.5748 42.9205 30.9017 42.6048C31.2286 42.2892 31.4193 41.8584 31.4331 41.4041L31.4593 40.6381C32.5208 40.3498 33.5413 39.9279 34.4965 39.3825L35.0551 39.904C35.3862 40.215 35.8257 40.3844 36.2799 40.3763C36.734 40.3681 37.1671 40.1829 37.4868 39.8602L39.8641 37.4828C40.187 37.1632 40.3722 36.7301 40.3804 36.2759C40.3885 35.8217 40.219 35.3822 39.9079 35.0512L39.3829 34.4895C39.9281 33.5356 40.35 32.5164 40.6385 31.4563L41.4037 31.43C41.858 31.4163 42.289 31.2257 42.6047 30.8988C42.9204 30.5719 43.0959 30.1345 43.0938 29.68V26.3183C43.0956 25.864 42.9199 25.427 42.6042 25.1004C42.2885 24.7737 41.8578 24.5833 41.4037 24.5696ZM41.7813 29.6818C41.7813 29.7953 41.7373 29.9044 41.6584 29.986C41.5796 30.0676 41.4721 30.1154 41.3586 30.1193L40.1 30.163C39.9559 30.1679 39.8175 30.2201 39.7061 30.3115C39.5947 30.4029 39.5165 30.5285 39.4835 30.6688C39.1914 31.929 38.6923 33.1322 38.0065 34.2291C37.93 34.3517 37.8961 34.4961 37.91 34.6399C37.9239 34.7837 37.9849 34.9189 38.0835 35.0245L38.9445 35.9468C39.0219 36.0298 39.0641 36.1396 39.062 36.253C39.06 36.3665 39.0139 36.4747 38.9336 36.5549L36.5562 38.9323C36.4761 39.0126 36.3678 39.0587 36.2544 39.0607C36.1409 39.0627 36.0311 39.0206 35.9481 38.9432L35.0293 38.0848C34.9238 37.9863 34.7886 37.9254 34.6449 37.9115C34.5012 37.8976 34.3569 37.9314 34.2344 38.0078C33.1357 38.6935 31.9308 39.192 30.6688 39.4831C30.528 39.5156 30.4019 39.5936 30.31 39.705C30.218 39.8165 30.1655 39.9551 30.1604 40.0995L30.1166 41.3591C30.1127 41.4724 30.0648 41.5798 29.9832 41.6586C29.9016 41.7374 29.7926 41.7813 29.6791 41.7813H26.3187C26.2052 41.7813 26.0961 41.7373 26.0145 41.6584C25.9329 41.5796 25.8851 41.4721 25.8812 41.3586L25.8375 40.1C25.8325 39.9559 25.7803 39.8174 25.6888 39.706C25.5973 39.5946 25.4716 39.5164 25.3313 39.4835C24.0709 39.1913 22.8676 38.6922 21.7705 38.0065C21.6479 37.93 21.5035 37.8961 21.3597 37.91C21.2159 37.9239 21.0807 37.9849 20.9751 38.0835L20.0533 38.9445C19.9706 39.0224 19.8608 39.0649 19.7472 39.0628C19.6336 39.0608 19.5254 39.0144 19.4456 38.9336L17.0678 36.5562C16.9875 36.476 16.9415 36.3677 16.9396 36.2543C16.9376 36.1408 16.9798 36.031 17.0573 35.9481L17.9152 35.0293C18.0137 34.9238 18.0746 34.7886 18.0886 34.6449C18.1025 34.5012 18.0686 34.3569 17.9922 34.2344C17.3065 33.1357 16.8079 31.9308 16.517 30.6688C16.4844 30.528 16.4063 30.4019 16.2947 30.3101C16.1832 30.2182 16.0445 30.1658 15.9001 30.1608L14.641 30.1171C14.5276 30.1131 14.4202 30.0653 14.3414 29.9837C14.2627 29.902 14.2187 29.793 14.2188 29.6796V26.3183C14.2187 26.2048 14.2627 26.0958 14.3414 26.0142C14.4202 25.9326 14.5276 25.8847 14.641 25.8808L15.8996 25.837C16.044 25.8321 16.1828 25.7796 16.2943 25.6878C16.4058 25.5959 16.484 25.4698 16.5165 25.3291C16.8084 24.0687 17.3075 22.8656 17.9935 21.7687C18.07 21.6461 18.104 21.5018 18.09 21.3579C18.0761 21.2141 18.0151 21.0789 17.9165 20.9733L17.0555 20.0511C16.9781 19.9681 16.9359 19.8584 16.9378 19.7449C16.9398 19.6314 16.9857 19.5232 17.066 19.443L19.4443 17.0651C19.5245 16.985 19.6326 16.9391 19.746 16.9371C19.8594 16.9352 19.969 16.9773 20.052 17.0546L20.9707 17.913C21.0763 18.0116 21.2115 18.0726 21.3553 18.0865C21.4991 18.1005 21.6435 18.0665 21.7661 17.99C22.8647 17.305 24.0695 16.8074 25.3313 16.5174C25.472 16.4848 25.5981 16.4067 25.69 16.2952C25.7818 16.1836 25.8343 16.0449 25.8392 15.9005L25.883 14.6414C25.8868 14.528 25.9346 14.4205 26.0162 14.3416C26.0979 14.2628 26.207 14.2187 26.3205 14.2188H29.6835C29.797 14.2187 29.9061 14.2628 29.9877 14.3416C30.0694 14.4205 30.1172 14.528 30.121 14.6414L30.1648 15.8996C30.1696 16.0434 30.2215 16.1817 30.3126 16.293C30.4037 16.4044 30.5288 16.4828 30.6688 16.5161C31.9289 16.8084 33.1319 17.3077 34.2287 17.9935C34.3513 18.0701 34.4958 18.1041 34.6397 18.0902C34.7836 18.0763 34.9189 18.0152 35.0245 17.9165L35.9468 17.0555C36.0297 16.9781 36.1395 16.9359 36.253 16.9378C36.3664 16.9398 36.4747 16.9857 36.5549 17.066L38.9323 19.4438C39.0126 19.524 39.0587 19.6322 39.0607 19.7457C39.0627 19.8591 39.0206 19.969 38.9432 20.052L38.0848 20.9707C37.9863 21.0763 37.9254 21.2114 37.9115 21.3551C37.8976 21.4988 37.9314 21.6431 38.0078 21.7656C38.6935 22.8644 39.192 24.0693 39.4831 25.3313C39.5156 25.472 39.5936 25.5982 39.705 25.6901C39.8165 25.782 39.9551 25.8346 40.0995 25.8396L41.3586 25.8834C41.472 25.8874 41.5794 25.9352 41.6582 26.0168C41.7369 26.0984 41.7809 26.2075 41.7808 26.3209L41.7813 29.6818Z" stroke="#3664F5" stroke-width="0.4" mask="url(#path-4-outside-1_153_346)"/>
<path d="M30.6324 23.4531L30.6324 23.4532L26.5538 27.3189L25.4147 26.1793L25.4147 26.1793C24.9525 25.7172 24.3257 25.4575 23.672 25.4575C23.0184 25.4575 22.3916 25.7172 21.9294 26.1793C21.4673 26.6415 21.2076 27.2683 21.2076 27.922C21.2076 28.5756 21.4673 29.2024 21.9294 29.6646L24.7645 32.4997C24.7646 32.4997 24.7647 32.4998 24.7648 32.4999C25.2174 32.9568 25.8314 33.2176 26.4745 33.2261C27.1176 33.2346 27.7383 32.9902 28.2028 32.5455C28.2029 32.5454 28.203 32.5453 28.2031 32.5453L34.0232 27.0314L34.0232 27.0314C34.4977 26.5817 34.7741 25.962 34.7917 25.3085C34.8093 24.6551 34.5665 24.0214 34.1169 23.5469C33.6672 23.0724 33.0475 22.7959 32.394 22.7783C31.7406 22.7608 31.1069 23.0035 30.6324 23.4531ZM32.7996 26.1059H32.8005L27.1638 31.4489L27.1635 31.4492C26.9838 31.6211 26.7438 31.7154 26.4951 31.7118C26.2465 31.7081 26.0093 31.6069 25.8347 31.4298L25.8342 31.4293L22.9992 28.5935L22.9992 28.5935C22.8207 28.415 22.7204 28.1729 22.7204 27.9204C22.7204 27.668 22.8207 27.4259 22.9992 27.2474C23.1777 27.0689 23.4198 26.9686 23.6723 26.9686C23.9247 26.9686 24.1668 27.0689 24.3453 27.2474L26.0043 28.9085L26.0043 28.9086C26.1437 29.0479 26.3318 29.1272 26.5288 29.1299C26.7258 29.1325 26.916 29.0582 27.059 28.9227L27.0591 28.9227L31.6721 24.5512C31.7628 24.4652 31.8696 24.3979 31.9864 24.3532C32.1031 24.3085 32.2275 24.2872 32.3525 24.2906C32.4775 24.2939 32.6006 24.3219 32.7148 24.3728C32.8289 24.4237 32.932 24.4967 33.018 24.5874C33.104 24.6782 33.1712 24.785 33.216 24.9017C33.2607 25.0185 33.282 25.1429 33.2786 25.2679C33.2752 25.3929 33.2473 25.516 33.1963 25.6301C33.1454 25.7443 33.0725 25.8473 32.9817 25.9333L32.7996 26.1059Z" fill="#3664F5" stroke="#3664F5" stroke-width="0.2"/>
</g>
<defs>
<clipPath id="clip0_153_346">
<rect width="56" height="56" fill="white"/>
</clipPath>
</defs>
</svg>
