<svg width="56" height="52" viewBox="0 0 56 52" fill="none" xmlns="http://www.w3.org/2000/svg">
<path d="M27.2534 25.0044C27.1787 25.0044 27.1041 24.992 27.0419 24.9671C26.7183 24.8427 26.5565 24.4942 26.681 24.1707L32.5423 8.32887C32.6667 8.00532 33.0152 7.84354 33.3387 7.96798C33.6623 8.09243 33.8241 8.44087 33.7121 8.76443L27.8383 24.5938C27.7512 24.8427 27.5147 25.0044 27.2534 25.0044ZM13.2907 22.0427C11.2623 22.0427 9.61963 20.4747 9.61963 18.5582V11.5644C9.61963 11.216 9.89341 10.9422 10.2419 10.9422C10.5903 10.9422 10.8641 11.216 10.8641 11.5644V18.5582C10.8641 19.7902 11.9592 20.7982 13.2907 20.7982C14.6223 20.7982 15.7174 19.7902 15.7174 18.5582V11.5644C15.7174 11.216 15.9912 10.9422 16.3396 10.9422C16.6881 10.9422 16.9619 11.216 16.9619 11.5644V18.5582C16.9743 20.4871 15.3192 22.0427 13.2907 22.0427ZM19.3014 22.0427C19.2019 22.0427 19.1023 22.0178 19.0027 21.968C18.7041 21.8062 18.5921 21.4329 18.7539 21.1218L24.105 11.1911C24.2667 10.8924 24.6401 10.7804 24.9512 10.9422C25.2499 11.104 25.3619 11.4773 25.2001 11.7884L19.849 21.7191C19.737 21.9307 19.5254 22.0427 19.3014 22.0427Z" fill="#3664F5"/>
<path d="M24.6525 22.0427C24.4285 22.0427 24.2169 21.9307 24.1049 21.7191L18.7538 11.7884C18.592 11.4898 18.704 11.104 19.0027 10.9422C19.3014 10.7804 19.6871 10.8924 19.8489 11.1911L25.2 21.1218C25.3618 21.4204 25.2498 21.8062 24.9511 21.968C24.8516 22.0178 24.752 22.0427 24.6525 22.0427ZM38.7894 22.0427C36.7609 22.0427 35.1183 20.4747 35.1183 18.5582V11.5644C35.1183 11.216 35.392 10.9422 35.7405 10.9422C36.0889 10.9422 36.3627 11.216 36.3627 11.5644V18.5582C36.3627 19.7902 37.4578 20.7982 38.7894 20.7982C40.1209 20.7982 41.216 19.7902 41.216 18.5582V11.5644C41.216 11.216 41.4898 10.9422 41.8383 10.9422C42.1867 10.9422 42.4605 11.216 42.4605 11.5644V18.5582C42.4605 20.4871 40.8178 22.0427 38.7894 22.0427ZM45.8205 22.7147C45.472 22.7147 45.1983 22.4409 45.1983 22.0924V10.8178C45.1983 10.4693 45.472 10.1956 45.8205 10.1956C46.1689 10.1956 46.4427 10.4693 46.4427 10.8178V22.0924C46.4427 22.4409 46.1689 22.7147 45.8205 22.7147ZM22.0267 38.544C20.8943 38.544 19.9734 37.6231 19.9734 36.4907C19.9734 35.3582 20.8943 34.4373 22.0267 34.4373C23.1591 34.4373 24.08 35.3582 24.08 36.4907C24.08 37.6231 23.1591 38.544 22.0267 38.544ZM22.0267 35.6818C21.5787 35.6818 21.2178 36.0427 21.2178 36.4907C21.2178 36.9387 21.5787 37.2996 22.0267 37.2996C22.4747 37.2996 22.8356 36.9387 22.8356 36.4907C22.8356 36.0427 22.4747 35.6818 22.0267 35.6818ZM28.0374 38.544C26.9049 38.544 25.984 37.6231 25.984 36.4907C25.984 35.3582 26.9049 34.4373 28.0374 34.4373C29.1698 34.4373 30.0907 35.3582 30.0907 36.4907C30.0907 37.6231 29.1698 38.544 28.0374 38.544ZM28.0374 35.6818C27.5894 35.6818 27.2285 36.0427 27.2285 36.4907C27.2285 36.9387 27.5894 37.2996 28.0374 37.2996C28.4854 37.2996 28.8463 36.9387 28.8463 36.4907C28.8463 36.0427 28.4854 35.6818 28.0374 35.6818ZM34.0356 38.544C32.9031 38.544 31.9823 37.6231 31.9823 36.4907C31.9823 35.3582 32.9031 34.4373 34.0356 34.4373C35.168 34.4373 36.0889 35.3582 36.0889 36.4907C36.0889 37.6231 35.168 38.544 34.0356 38.544ZM34.0356 35.6818C33.5876 35.6818 33.2267 36.0427 33.2267 36.4907C33.2267 36.9387 33.5876 37.2996 34.0356 37.2996C34.4836 37.2996 34.8445 36.9387 34.8445 36.4907C34.8445 36.0427 34.4836 35.6818 34.0356 35.6818Z" fill="#3664F5"/>
<path d="M51.6694 41.6676H4.39293C2.26493 41.6676 0.535156 39.9378 0.535156 37.8098V4.22228C0.535156 2.09428 2.26493 0.364502 4.39293 0.364502H51.6694C53.7974 0.364502 55.5272 2.09428 55.5272 4.22228V37.8098C55.5396 39.9378 53.7974 41.6676 51.6694 41.6676ZM4.39293 1.5965C2.94938 1.5965 1.7796 2.76628 1.7796 4.20984V37.7974C1.7796 39.2409 2.94938 40.4107 4.39293 40.4107H51.6694C53.1129 40.4107 54.2827 39.2409 54.2827 37.7974V4.22228C54.2827 2.77872 53.1129 1.60895 51.6694 1.60895C51.6694 1.5965 4.39293 1.5965 4.39293 1.5965Z" fill="#3664F5"/>
<path d="M54.9174 32.5582H1.15738C0.808934 32.5582 0.535156 32.2844 0.535156 31.9359C0.535156 31.5875 0.808934 31.3137 1.15738 31.3137H54.9174C55.2658 31.3137 55.5396 31.5875 55.5396 31.9359C55.5396 32.2844 55.2534 32.5582 54.9174 32.5582ZM37.968 47.4044C37.6196 47.4044 37.3458 47.1306 37.3458 46.7822V41.0328C37.3458 40.6844 37.6196 40.4106 37.968 40.4106C38.3165 40.4106 38.5903 40.6844 38.5903 41.0328V46.7822C38.5903 47.1306 38.3165 47.4044 37.968 47.4044ZM18.3805 47.4044C18.032 47.4044 17.7583 47.1306 17.7583 46.7822V41.0328C17.7583 40.6844 18.032 40.4106 18.3805 40.4106C18.7289 40.4106 19.0027 40.6844 19.0027 41.0328V46.7822C19.0027 47.1306 18.7289 47.4044 18.3805 47.4044Z" fill="#3664F5"/>
<path d="M41.3654 51.8223H14.697C13.129 51.8223 11.8596 50.5529 11.8596 48.9849C11.8596 47.4294 13.129 46.1476 14.697 46.1476H41.353C42.9085 46.1476 44.1903 47.4169 44.1903 48.9849C44.1903 50.5529 42.921 51.8223 41.3654 51.8223ZM14.697 47.4045C13.8258 47.4045 13.1041 48.1138 13.1041 48.9974C13.1041 49.8809 13.8134 50.5903 14.697 50.5903H41.353C42.2241 50.5903 42.9458 49.8809 42.9458 48.9974C42.9458 48.1138 42.2365 47.4045 41.353 47.4045H14.697Z" fill="#3664F5"/>
</svg>
