<svg width="56" height="54" viewBox="0 0 56 54" fill="none" xmlns="http://www.w3.org/2000/svg">
<path d="M45.36 0.781738H10.64C5.30304 0.781738 0.967285 5.1175 0.967285 10.4545V43.5369C0.967285 48.8739 5.30304 53.2096 10.64 53.2096H45.3685C50.7055 53.2096 55.0412 48.8739 55.0412 43.5369V10.463C55.0412 5.12598 50.697 0.781738 45.36 0.781738ZM2.60486 10.463C2.60486 6.03386 6.21092 2.43628 10.6315 2.43628H45.36C49.7891 2.43628 53.3867 6.04234 53.3867 10.463V12.8557H24.9879C24.7164 12.8557 24.4533 12.7539 24.2582 12.5672L23.4606 11.8205L19.9309 8.50295C19.6594 8.24841 19.3455 8.05325 19.0146 7.90053C18.5479 7.67992 18.0473 7.55265 17.5127 7.55265H12.8036C10.8606 7.55265 9.28244 9.13083 9.28244 11.0739V11.7951C9.28244 12.3805 8.80729 12.8642 8.21335 12.8642H2.60486V10.463ZM53.3952 43.5369C53.3952 47.966 49.7976 51.5636 45.3685 51.5636H10.64C6.21092 51.5636 2.61335 47.9575 2.61335 43.5369V14.5017H8.22183C9.71516 14.5017 10.937 13.2884 10.937 11.7866V11.0654C10.937 10.0302 11.777 9.19022 12.8121 9.19022H17.5212C17.7333 9.19022 17.9455 9.23265 18.1491 9.30053C18.3952 9.38538 18.6158 9.52113 18.8109 9.69932L23.1382 13.7636C23.52 14.1199 23.9867 14.3575 24.4873 14.4508C24.657 14.4848 24.8267 14.5017 24.9964 14.5017H53.4036V43.5369H53.3952Z" fill="#3664F5"/>
<path d="M46.9297 10.3186C48.406 10.3186 49.6024 9.11375 49.6024 7.64587C49.6024 6.17799 48.406 4.97314 46.9297 4.97314C45.4618 4.97314 44.2569 6.16951 44.2569 7.64587C44.2569 9.11375 45.4533 10.3186 46.9297 10.3186ZM46.9297 6.6192C47.4981 6.6192 47.9563 7.07739 47.9563 7.64587C47.9563 8.21436 47.4897 8.67254 46.9297 8.67254C46.3697 8.67254 45.903 8.21436 45.903 7.64587C45.903 7.07739 46.3612 6.6192 46.9297 6.6192ZM40.2182 10.5477C40.7468 10.5477 41.2635 10.3909 41.703 10.0973C42.1426 9.80357 42.4851 9.38615 42.6874 8.89777C42.8897 8.40939 42.9426 7.872 42.8395 7.35354C42.7364 6.83508 42.4818 6.35885 42.1081 5.98506C41.7343 5.61127 41.258 5.35672 40.7396 5.25359C40.2211 5.15046 39.6837 5.20339 39.1953 5.40568C38.707 5.60798 38.2895 5.95055 37.9959 6.39007C37.7022 6.8296 37.5454 7.34635 37.5454 7.87496C37.5539 9.34284 38.7503 10.5477 40.2182 10.5477ZM40.2182 6.8483C40.7866 6.8483 41.2448 7.30648 41.2448 7.87496C41.2448 8.44345 40.7866 8.90163 40.2182 8.90163C39.6581 8.90163 39.1915 8.44345 39.1915 7.87496C39.2 7.30648 39.6581 6.8483 40.2182 6.8483ZM33.5066 10.7768C34.0352 10.7768 34.552 10.62 34.9915 10.3263C35.431 10.0327 35.7736 9.61524 35.9759 9.12686C36.1782 8.63848 36.2311 8.10109 36.128 7.58263C36.0249 7.06417 35.7703 6.58794 35.3965 6.21415C35.0228 5.84036 34.5465 5.58581 34.0281 5.48268C33.5096 5.37955 32.9722 5.43248 32.4838 5.63478C31.9954 5.83707 31.578 6.17964 31.2843 6.61917C30.9907 7.05869 30.8339 7.57544 30.8339 8.10405C30.8424 9.58042 32.0388 10.7768 33.5066 10.7768ZM33.5066 7.07739C34.0751 7.07739 34.5333 7.53557 34.5333 8.10405C34.5333 8.67254 34.0666 9.13072 33.5066 9.13072C32.9466 9.13072 32.48 8.67254 32.48 8.10405C32.4885 7.53557 32.9466 7.07739 33.5066 7.07739ZM24.6315 20.0507C23.4097 20.3647 22.2472 20.8483 21.1612 21.4931L20.0751 20.4071C19.3794 19.7113 18.2424 19.7113 17.5381 20.4071L15.2897 22.6471C14.6024 23.3513 14.6024 24.4798 15.2897 25.1756L16.3757 26.2616C15.7384 27.3459 15.2558 28.514 14.9418 29.7319H13.406C12.4218 29.7319 11.6157 30.538 11.6157 31.5222V34.6871C11.6157 35.6713 12.4218 36.4774 13.406 36.4774H14.9418C15.2557 37.6992 15.7394 38.8616 16.3757 39.9477L15.2981 41.0338C14.6024 41.7295 14.6024 42.8665 15.2981 43.5707L17.5381 45.8107C18.2339 46.5065 19.3709 46.5065 20.0751 45.8107L21.1612 44.7247C22.2472 45.3695 23.4097 45.8531 24.6315 46.1671V47.6944C24.6315 48.6786 25.4375 49.4847 26.4303 49.4847H29.5866C30.5794 49.4847 31.3854 48.6786 31.3854 47.6944V46.1671C32.5988 45.8531 33.7697 45.3695 34.8557 44.7247L35.9333 45.8107C36.2727 46.1501 36.7224 46.3368 37.206 46.3368H37.2145C37.6981 46.3368 38.1394 46.1501 38.4703 45.8107L40.7188 43.5707C41.406 42.875 41.406 41.738 40.7188 41.0422L39.6327 39.9562C40.2691 38.8786 40.7527 37.7162 41.0666 36.4859H42.5939C43.5866 36.4859 44.3927 35.6798 44.3927 34.6956V31.5307C44.3927 30.5465 43.5866 29.7404 42.5939 29.7404H41.0666C40.7527 28.5271 40.2691 27.3647 39.6327 26.2701L40.7188 25.1841C41.406 24.4883 41.406 23.3513 40.7103 22.6556L38.4703 20.4241C38.1309 20.0847 37.6897 19.898 37.206 19.898H37.1975C36.7139 19.898 36.2642 20.0847 35.9248 20.4241L34.8472 21.5101C33.7612 20.8653 32.5988 20.3816 31.3769 20.0677V18.5404C31.3769 17.5562 30.5709 16.7501 29.5781 16.7501H26.4218C25.4291 16.7501 24.623 17.5562 24.623 18.5404V20.0507H24.6315ZM25.6157 21.5101C25.9975 21.4338 26.2691 21.0944 26.2691 20.7041V18.5234C26.2691 18.4471 26.3369 18.3792 26.4218 18.3792H29.5781C29.663 18.3792 29.7309 18.4386 29.7309 18.5234V20.7041C29.7309 21.0944 30.0024 21.4338 30.3842 21.5101C31.8521 21.8156 33.2436 22.3925 34.5078 23.2241C34.8303 23.4362 35.263 23.3938 35.543 23.1138L37.0872 21.5695C37.1212 21.5356 37.1636 21.5271 37.1891 21.5271C37.2145 21.5271 37.2569 21.5356 37.2909 21.5695L39.5309 23.801C39.5903 23.8604 39.5903 23.9538 39.5309 24.0131L37.9866 25.5574C37.7151 25.8289 37.6642 26.2616 37.8763 26.5925C38.7078 27.8653 39.2848 29.2483 39.5903 30.7247C39.6666 31.1065 40.006 31.378 40.3963 31.378H42.5769C42.6618 31.378 42.7297 31.4459 42.7297 31.5222V34.6871C42.7297 34.7634 42.6618 34.8313 42.5769 34.8313H40.3963C40.006 34.8313 39.6666 35.1028 39.5903 35.4847C39.2848 36.978 38.7078 38.361 37.8848 39.6083C37.6727 39.9307 37.7151 40.3634 37.9866 40.6434L39.5309 42.1877C39.5903 42.2471 39.5903 42.3404 39.5394 42.3998L37.2909 44.6398C37.2569 44.6738 37.223 44.6822 37.1975 44.6822C37.1721 44.6822 37.1297 44.6738 37.0957 44.6398L35.5515 43.0956C35.418 42.9608 35.2421 42.8763 35.0535 42.8562C34.865 42.8361 34.6752 42.8817 34.5163 42.9853C33.2521 43.8168 31.8606 44.3938 30.3927 44.6992C30.0109 44.7756 29.7394 45.115 29.7394 45.5053V47.6859C29.7394 47.7707 29.6715 47.8301 29.5866 47.8301H26.4303C26.3454 47.8301 26.2775 47.7622 26.2775 47.6859V45.5053C26.2775 45.115 26.006 44.7756 25.6242 44.6992C24.1478 44.3938 22.7648 43.8168 21.5006 42.9853C21.3677 42.8959 21.211 42.8486 21.0509 42.8495C20.8388 42.8495 20.6266 42.9344 20.4654 43.0871L18.9212 44.6313C18.8618 44.6907 18.7685 44.6907 18.7175 44.6313L16.486 42.3998C16.4719 42.386 16.4607 42.3695 16.4531 42.3513C16.4454 42.3331 16.4415 42.3135 16.4415 42.2938C16.4415 42.274 16.4454 42.2544 16.4531 42.2362C16.4607 42.218 16.4719 42.2015 16.486 42.1877L18.0303 40.6434C18.3018 40.3634 18.3527 39.9392 18.1321 39.6083C17.3053 38.3554 16.7263 36.9556 16.4266 35.4847C16.3884 35.2994 16.2872 35.1331 16.1403 35.014C15.9934 34.8949 15.8097 34.8304 15.6206 34.8313H13.4315C13.3551 34.8313 13.2872 34.7634 13.2872 34.6871V31.5222C13.2872 31.4459 13.3551 31.378 13.4315 31.378H15.6206C16.0109 31.378 16.3503 31.1065 16.4266 30.7247C16.7317 29.2554 17.3102 27.8565 18.1321 26.601C18.3442 26.2786 18.3018 25.8459 18.0303 25.5659L16.486 24.0131C16.4266 23.9538 16.4266 23.8604 16.486 23.8095L18.726 21.5695C18.7854 21.5101 18.8788 21.5101 18.9297 21.5695L20.4739 23.1138C20.7539 23.3938 21.1866 23.4362 21.5091 23.2156C22.7563 22.3925 24.1394 21.8156 25.6157 21.5101Z" fill="#3664F5"/>
<path d="M18.5564 33.1006C18.5564 38.3103 22.7903 42.5527 28 42.5527C33.2097 42.5527 37.4437 38.3103 37.4437 33.1006C37.4437 27.8909 33.2097 23.657 28 23.657C22.7903 23.657 18.5564 27.8994 18.5564 33.1006ZM28 25.303C32.3019 25.303 35.7976 28.7988 35.7976 33.1006C35.7976 37.4024 32.3019 40.9067 28 40.9067C23.6982 40.9067 20.2025 37.4024 20.2025 33.1006C20.2025 28.8073 23.6982 25.303 28 25.303Z" fill="#3664F5"/>
<path d="M25.2425 37.7162C25.3698 37.7926 25.514 37.8265 25.6498 37.8265C25.9382 37.8265 26.2098 37.6738 26.3625 37.4107L30.8255 29.6132C30.879 29.5196 30.9135 29.4164 30.9271 29.3094C30.9407 29.2025 30.9331 29.0939 30.9048 28.9899C30.8764 28.8859 30.8278 28.7885 30.7618 28.7033C30.6958 28.618 30.6137 28.5466 30.5201 28.4932C30.4265 28.4397 30.3233 28.4052 30.2163 28.3916C30.1094 28.378 30.0008 28.3856 29.8968 28.4139C29.7928 28.4423 29.6954 28.4909 29.6102 28.5569C29.5249 28.6229 29.4536 28.705 29.4001 28.7986L24.937 36.5962C24.8821 36.6894 24.8464 36.7927 24.8321 36.9C24.8177 37.0072 24.825 37.1162 24.8535 37.2206C24.8819 37.325 24.931 37.4227 24.9979 37.5078C25.0647 37.5929 25.1478 37.6638 25.2425 37.7162ZM29.9431 32.812C29.6207 33.1344 29.6207 33.652 29.9431 33.9744L31.1649 35.1962L29.9431 36.418C29.8278 36.533 29.7494 36.6796 29.7178 36.8393C29.6862 36.999 29.7029 37.1644 29.7657 37.3146C29.8285 37.4648 29.9346 37.5929 30.0704 37.6825C30.2063 37.7722 30.3658 37.8193 30.5285 37.818C30.7407 37.818 30.9528 37.7417 31.114 37.5804L32.9213 35.7732C33.2437 35.4507 33.2437 34.9332 32.9213 34.6107L31.114 32.8035C30.7831 32.4895 30.257 32.4895 29.9431 32.812ZM24.8946 33.3974C25.0558 33.5586 25.2679 33.635 25.4801 33.635C25.6922 33.635 25.9043 33.5586 26.0655 33.3974C26.3879 33.075 26.3879 32.5574 26.0655 32.235L24.8437 31.0132L26.0655 29.7913C26.3879 29.4689 26.3879 28.9513 26.0655 28.6289C25.7431 28.3065 25.2255 28.3065 24.9031 28.6289L23.0958 30.4362C22.7734 30.7586 22.7734 31.2762 23.0958 31.5986L24.8946 33.3974Z" fill="#3664F5"/>
</svg>
